<svg width="20" height="20" viewBox="0 0 20 20" fill="none" xmlns="http://www.w3.org/2000/svg">
<path d="M9.99915 6.14751C8.97718 6.14751 7.99707 6.55348 7.27443 7.27612C6.55179 7.99876 6.14581 8.97887 6.14581 10.0008C6.14581 11.0228 6.55179 12.0029 7.27443 12.7256C7.99707 13.4482 8.97718 13.8542 9.99915 13.8542C11.0211 13.8542 12.0012 13.4482 12.7239 12.7256C13.4465 12.0029 13.8525 11.0228 13.8525 10.0008C13.8525 8.97887 13.4465 7.99876 12.7239 7.27612C12.0012 6.55348 11.0211 6.14751 9.99915 6.14751ZM9.99915 12.5033C9.33522 12.5033 8.69849 12.2396 8.22902 11.7701C7.75956 11.3007 7.49581 10.6639 7.49581 10C7.49581 9.33608 7.75956 8.69935 8.22902 8.22988C8.69849 7.76042 9.33522 7.49667 9.99915 7.49667C10.6631 7.49667 11.2998 7.76042 11.7693 8.22988C12.2387 8.69935 12.5025 9.33608 12.5025 10C12.5025 10.6639 12.2387 11.3007 11.7693 11.7701C11.2998 12.2396 10.6631 12.5033 9.99915 12.5033Z" fill="white"/>
<path d="M14.005 6.90416C14.5012 6.90416 14.9034 6.50197 14.9034 6.00583C14.9034 5.5097 14.5012 5.1075 14.005 5.1075C13.5089 5.1075 13.1067 5.5097 13.1067 6.00583C13.1067 6.50197 13.5089 6.90416 14.005 6.90416Z" fill="white"/>
<path d="M17.1108 5.0925C16.9179 4.59432 16.6231 4.1419 16.2453 3.76421C15.8674 3.38653 15.4149 3.09189 14.9166 2.89917C14.3336 2.6803 13.7176 2.56195 13.095 2.54917C12.2925 2.51417 12.0383 2.50417 10.0033 2.50417C7.96831 2.50417 7.70748 2.50417 6.91165 2.54917C6.28947 2.5613 5.67395 2.67967 5.09165 2.89917C4.59326 3.09167 4.14062 3.38622 3.76276 3.76394C3.3849 4.14165 3.09017 4.59419 2.89748 5.0925C2.67857 5.67551 2.56049 6.29153 2.54831 6.91417C2.51248 7.71583 2.50165 7.97 2.50165 10.0058C2.50165 12.0408 2.50165 12.3 2.54831 13.0975C2.56081 13.7208 2.67831 14.3358 2.89748 14.92C3.09071 15.4181 3.38573 15.8705 3.76368 16.2481C4.14163 16.6258 4.5942 16.9205 5.09248 17.1133C5.67368 17.341 6.28946 17.4678 6.91331 17.4883C7.71581 17.5233 7.96998 17.5342 10.005 17.5342C12.04 17.5342 12.3008 17.5342 13.0966 17.4883C13.7192 17.4757 14.3352 17.3576 14.9183 17.1392C15.4164 16.946 15.8688 16.6511 16.2466 16.2733C16.6244 15.8955 16.9193 15.4431 17.1125 14.945C17.3316 14.3617 17.4491 13.7467 17.4616 13.1233C17.4975 12.3217 17.5083 12.0675 17.5083 10.0317C17.5083 7.99583 17.5083 7.7375 17.4616 6.94C17.4519 6.30856 17.3333 5.68354 17.1108 5.0925ZM16.0958 13.0358C16.0904 13.5161 16.0028 13.9919 15.8366 14.4425C15.7115 14.7666 15.5199 15.0608 15.2742 15.3064C15.0285 15.552 14.7341 15.7434 14.41 15.8683C13.9643 16.0337 13.4936 16.1214 13.0183 16.1275C12.2266 16.1642 12.0033 16.1733 9.97331 16.1733C7.94165 16.1733 7.73415 16.1733 6.92748 16.1275C6.45242 16.1217 5.98192 16.034 5.53665 15.8683C5.21139 15.7442 4.91582 15.5531 4.66906 15.3075C4.4223 15.0619 4.22984 14.7672 4.10415 14.4425C3.94035 13.9967 3.85274 13.5265 3.84498 13.0517C3.80915 12.26 3.80081 12.0367 3.80081 10.0067C3.80081 7.97583 3.80081 7.76833 3.84498 6.96083C3.85037 6.48085 3.93803 6.00535 4.10415 5.555C4.35831 4.8975 4.87915 4.38 5.53665 4.12833C5.98214 3.96345 6.4525 3.8758 6.92748 3.86917C7.71998 3.83333 7.94248 3.82333 9.97331 3.82333C12.0041 3.82333 12.2125 3.82333 13.0183 3.86917C13.4937 3.87488 13.9644 3.96256 14.41 4.12833C14.7341 4.25356 15.0284 4.44517 15.2741 4.69086C15.5198 4.93655 15.7114 5.23089 15.8366 5.555C16.0004 6.00079 16.0881 6.47097 16.0958 6.94583C16.1316 7.73833 16.1408 7.96083 16.1408 9.99167C16.1408 12.0217 16.1408 12.24 16.105 13.0367H16.0958V13.0358Z" fill="white"/>
</svg>
