<svg width="20" height="20" viewBox="0 0 20 20" fill="none" xmlns="http://www.w3.org/2000/svg">
<g clip-path="url(#clip0_1_58)">
<path d="M12.001 9.55C12.918 8.613 14.112 8 15.501 8C16.9597 8 18.3586 8.57946 19.3901 9.61091C20.4215 10.6424 21.001 12.0413 21.001 13.5V21H19.001V13.5C19.001 12.5717 18.6322 11.6815 17.9759 11.0251C17.3195 10.3687 16.4292 10 15.501 10C14.5727 10 13.6825 10.3687 13.0261 11.0251C12.3697 11.6815 12.001 12.5717 12.001 13.5V21H10.001V8.5H12.001V9.55ZM5.00098 6.5C4.60315 6.5 4.22162 6.34196 3.94032 6.06066C3.65901 5.77936 3.50098 5.39782 3.50098 5C3.50098 4.60218 3.65901 4.22064 3.94032 3.93934C4.22162 3.65804 4.60315 3.5 5.00098 3.5C5.3988 3.5 5.78033 3.65804 6.06164 3.93934C6.34294 4.22064 6.50098 4.60218 6.50098 5C6.50098 5.39782 6.34294 5.77936 6.06164 6.06066C5.78033 6.34196 5.3988 6.5 5.00098 6.5ZM4.00098 8.5H6.00098V21H4.00098V8.5Z" fill="black"/>
<path fill-rule="evenodd" clip-rule="evenodd" d="M7.85752 7.47417H10.9525V9.01584C11.3984 8.12917 12.5417 7.33251 14.2592 7.33251C17.5517 7.33251 18.3334 9.09751 18.3334 12.3358V18.3333H15V13.0733C15 11.2292 14.5542 10.1892 13.4192 10.1892C11.845 10.1892 11.1909 11.31 11.1909 13.0725V18.3333H7.85752V7.47417ZM2.14169 18.1917H5.47502V7.33251H2.14169V18.1917ZM5.95252 3.79167C5.95264 4.07107 5.89723 4.3477 5.78951 4.60549C5.68179 4.86329 5.5239 5.0971 5.32502 5.29334C4.92202 5.69386 4.37653 5.91805 3.80835 5.91667C3.24118 5.91629 2.69695 5.69267 2.29335 5.29417C2.0952 5.09727 1.93784 4.86319 1.83031 4.60536C1.72277 4.34754 1.66717 4.07103 1.66669 3.79167C1.66669 3.22751 1.89169 2.68751 2.29419 2.28917C2.69742 1.89014 3.24189 1.66642 3.80919 1.66667C4.37752 1.66667 4.92252 1.89084 5.32502 2.28917C5.72669 2.68751 5.95252 3.22751 5.95252 3.79167Z" fill="white"/>
</g>
<defs>
<clipPath id="clip0_1_58">
<rect width="20" height="20" fill="white"/>
</clipPath>
</defs>
</svg>
